<svg width="328" height="281" viewBox="0 0 328 281" fill="none" xmlns="http://www.w3.org/2000/svg">
<path d="M0 20C0 8.95431 8.95431 0 20 0H308C319.046 0 328 8.95431 328 20V253.638C328 266.879 315.364 276.466 302.613 272.899L223.816 250.858C220.732 249.996 217.486 249.886 214.351 250.539L114.344 271.364L21.5063 278.376C9.90014 279.252 0 270.072 0 258.432V20Z" fill="#FFB228"/>
<path d="M0 21C0 9.95431 8.95431 1 20 1H308C319.046 1 328 9.95431 328 21V257.744C328 269.982 317.106 279.351 305.006 277.518L212.411 263.498C211.42 263.348 210.419 263.273 209.417 263.273H168.044C165.968 263.273 163.905 262.95 161.929 262.315L130.642 252.268C127.134 251.142 123.383 251.006 119.803 251.876L24.7243 274.99C12.1333 278.05 0 268.513 0 255.556V21Z" fill="black" fill-opacity="0.35"/>
<path d="M0 21C0 9.95431 8.95431 1 20 1H308C319.046 1 328 9.95431 328 21V256.883C328 269.412 316.612 278.856 304.3 276.538L212.902 259.332C209.226 258.64 205.43 258.992 201.945 260.349L171.839 272.072C170.565 272.568 169.242 272.932 167.893 273.159L122.822 280.724C121.728 280.908 120.62 281 119.511 281H20C8.95431 281 0 272.046 0 261V21Z" fill="#FC0101" fill-opacity="0.11"/>
</svg>
